<svg viewBox="0 0 248 190" fill="none" xmlns="http://www.w3.org/2000/svg"><path d="M20.848 170.726c-2.717.26-5.233-.115-7.547-1.126-2.284-1.014-4.18-2.635-5.686-4.862-1.51-2.259-2.422-5.036-2.737-8.332-.444-4.64.004-8.81 1.344-12.512 1.37-3.704 3.414-6.656 6.13-8.856 2.746-2.204 5.89-3.475 9.43-3.813 2.717-.26 5.217.117 7.501 1.131 2.315 1.01 4.227 2.645 5.736 4.903 1.507 2.228 2.418 4.99 2.734 8.286.443 4.64-.02 8.812-1.39 12.516-1.341 3.701-3.384 6.654-6.13 8.857-2.716 2.2-5.845 3.47-9.386 3.808zm-.06-5.446c2.381-.228 4.402-1.16 6.063-2.798 1.691-1.64 2.901-3.804 3.63-6.492.726-2.719.93-5.726.616-9.023-.348-3.632-1.374-6.306-3.078-8.022-1.707-1.746-3.766-2.504-6.178-2.274-2.35.225-4.355 1.156-6.016 2.793-1.664 1.607-2.874 3.771-3.63 6.493-.76 2.691-.98 5.699-.662 9.027.348 3.632 1.375 6.321 3.082 8.068 1.705 1.716 3.762 2.458 6.174 2.228zm44.316-9.321c.396-.038.72.116.968.462.279.343.45.835.51 1.476.117 1.221-.082 2.195-.598 2.922-1.158 1.743-2.45 3.207-3.877 4.39-1.396 1.181-3.056 1.864-4.979 2.047-1.618.155-2.986-.299-4.104-1.363-1.632 1.296-3.392 2.05-5.282 2.261.167 5.929-.264 10.929-1.291 15.001-1.025 4.103-2.895 6.284-5.612 6.543-1.648.158-2.926-.32-3.834-1.435-.907-1.114-1.462-2.725-1.663-4.831-.286-2.991.066-6.552 1.058-10.682.994-4.099 2.696-8.682 5.107-13.749-.426-4.456-.753-7.551-.98-9.285-.116-.883.168-1.618.851-2.207.683-.589 1.574-.936 2.673-1.041.64-.061 1.112.032 1.413.281.328.215.544.702.648 1.462.073.763.142 1.327.208 1.69.86-1.314 1.738-2.276 2.635-2.886a5.947 5.947 0 012.943-1.113c1.709-.163 3.163.391 4.363 1.662 1.23 1.269 1.952 3.017 2.165 5.245a14.613 14.613 0 01-.327 4.79 15.474 15.474 0 01-1.754 4.373c.659.121 1.202.162 1.63.121 1.006-.096 1.933-.554 2.779-1.375.845-.82 1.904-2.153 3.175-4 .325-.462.717-.715 1.174-.759zm-17.553 7.778c1.075-.349 2.026-1.041 2.85-2.075.853-1.067 1.487-2.329 1.903-3.786.412-1.487.543-3.009.395-4.565-.088-.916-.337-1.585-.747-2.008a1.75 1.75 0 00-1.535-.593c-1.099.106-2.316 1.392-3.65 3.861.097 1.346.27 3.316.518 5.911.135 1.404.223 2.489.266 3.255zm-6.775 21.44c.824-.079 1.339-1.946 1.544-5.6.208-3.624.132-8.114-.226-13.47-1.02 3.178-1.78 6.192-2.277 9.043-.497 2.85-.656 5.222-.475 7.114.094.977.288 1.713.581 2.209.264.498.548.733.853.704zm38.444-29.182c.397-.038.72.116.968.462.28.343.45.835.51 1.476.106 1.099-.063 2.07-.506 2.913a8.912 8.912 0 01-3.095 3.392c-1.303.864-2.916 1.388-4.84 1.572-2.93.28-5.287-.373-7.071-1.958-1.787-1.615-2.824-3.919-3.11-6.91-.201-2.106.055-4.102.767-5.988.71-1.916 1.793-3.482 3.247-4.7 1.485-1.22 3.22-1.925 5.204-2.114 1.77-.17 3.24.229 4.411 1.195 1.168.936 1.838 2.304 2.01 4.105.201 2.106-.388 3.995-1.768 5.667-1.353 1.639-3.803 3.074-7.35 4.307.866 1.334 2.17 1.918 3.91 1.751 1.25-.119 2.246-.507 2.984-1.163.769-.659 1.621-1.726 2.558-3.202.323-.493.713-.761 1.17-.805zm-8.275-7.294c-1.13.108-2.028.856-2.696 2.245-.638 1.385-.868 3.009-.69 4.871l.01.091c1.76-.599 3.117-1.376 4.073-2.33.956-.954 1.38-1.995 1.272-3.125-.055-.58-.267-1.022-.635-1.325-.34-.337-.785-.48-1.334-.427zm14.825 15.816c-1.16.111-2.042-.421-2.647-1.595-.575-1.177-.99-3.108-1.248-5.795-.38-3.968-.175-7.791.613-11.471.19-.911.571-1.594 1.144-2.049.6-.489 1.465-.787 2.594-.895.61-.059 1.045-.023 1.304.106.259.129.409.407.45.835.046.488-.078 1.609-.372 3.362a70.596 70.596 0 00-.426 3.275c-.096.933-.14 2.077-.134 3.432.756-2.721 1.681-4.966 2.775-6.734 1.094-1.768 2.202-3.06 3.326-3.876 1.153-.819 2.234-1.276 3.241-1.373.977-.093 1.734.096 2.272.569.566.438.896 1.146.989 2.123.076.794.051 2.305-.075 4.535a100.265 100.265 0 00-.224 5.381c-.026 1.666.06 3.521.255 5.566.11 1.16-.053 2.023-.492 2.589-.41.532-1.15.849-2.219.951-1.007.097-1.765-.093-2.272-.568-.508-.475-.811-1.232-.91-2.269-.117-1.221-.096-3.256.063-6.105.132-2.477.167-4.051.103-4.723-.047-.488-.238-.716-.574-.684-.397.038-.912.611-1.545 1.718-.606 1.075-1.21 2.488-1.813 4.24a33.02 33.02 0 00-1.277 5.482c-.199 1.466-.502 2.481-.91 3.044-.381.529-1.045.839-1.99.929zm22.864-13.784c-.763.073-1.38-.099-1.851-.516-.474-.447-.752-1.098-.834-1.953-.079-.824.075-1.47.461-1.938.387-.469.962-.739 1.725-.812l13.14-1.257c1.587-.152 2.461.612 2.622 2.291.082.854-.068 1.546-.449 2.076-.353.495-.911.78-1.674.853l-13.14 1.256zm31.431 9.608c-1.587.152-2.843-.098-3.768-.748-.894-.654-1.385-1.439-1.473-2.355-.076-.793.149-1.508.673-2.143.525-.635 1.351-1.007 2.481-1.115a8.047 8.047 0 011.387.006l1.249.019a5.68 5.68 0 00-.764-2.191 9.78 9.78 0 00-1.383-1.901 24.93 24.93 0 00-1.54-1.608c-.774 1.891-1.577 3.477-2.41 4.758a31.758 31.758 0 01-2.697 3.677c-.497.602-1.051.932-1.662.991-.488.047-.901-.083-1.238-.39-.34-.337-.535-.765-.585-1.284-.058-.61.101-1.195.479-1.755l.525-.79c1.48-2.236 2.584-4.066 3.31-5.491.434-.935.932-2.168 1.494-3.701.559-1.563 1.099-3.17 1.618-4.821.452-1.399 1.593-2.185 3.425-2.361.854-.081 1.457-.062 1.807.059.351.12.542.348.574.684.017.183-.016.479-.1.887a6.602 6.602 0 01-.39 1.239c-.444 1.151-.63 2.109-.557 2.872.044.458.245.947.602 1.467.389.517.958 1.156 1.708 1.916 1.1 1.188 1.937 2.217 2.513 3.086a5.712 5.712 0 011.059 2.856c.029.305.039.735.031 1.291 1.44-.723 3.048-2.433 4.823-5.128.325-.463.717-.716 1.175-.759.397-.038.719.116.968.461.279.343.45.835.511 1.476.111 1.16-.089 2.134-.598 2.922-1.346 2.039-2.687 3.476-4.024 4.312-1.309.803-2.983 1.333-5.023 1.589-1.121 1.155-2.521 1.813-4.2 1.973zm32.911-18.579c.397-.038.721.131.972.507.252.377.407.87.465 1.48.141 1.466-.219 2.378-1.078 2.737-1.77.816-3.749 1.375-5.938 1.677-.335 2.619-1.283 4.789-2.843 6.509-1.563 1.69-3.429 2.639-5.596 2.846-1.831.175-3.446-.117-4.843-.877-1.366-.763-2.455-1.844-3.267-3.245-.812-1.401-1.299-2.956-1.463-4.666-.222-2.319.024-4.422.737-6.308.71-1.916 1.795-3.452 3.255-4.608 1.458-1.187 3.133-1.87 5.025-2.051 2.32-.222 4.259.409 5.818 1.892 1.587 1.45 2.614 3.339 3.083 5.666 1.426-.229 3.106-.698 5.041-1.407.238-.084.449-.135.632-.152zM158.86 152.63c.977-.094 1.779-.571 2.405-1.432.656-.863 1.035-2.055 1.136-3.574a6.526 6.526 0 01-2.438-2.308 7.676 7.676 0 01-1.048-3.226 7.93 7.93 0 01-.003-1.478l-.229.021c-1.221.117-2.186.81-2.897 2.079-.682 1.236-.921 2.922-.717 5.059.161 1.679.604 2.93 1.329 3.754.756.821 1.577 1.189 2.462 1.105zm17.459 3.227c-1.374.132-2.563-.386-3.568-1.553-.977-1.2-1.556-2.746-1.737-4.639-.219-2.289-.267-4.394-.142-6.316.121-1.952.43-4.03.928-6.234.218-.945.582-1.642 1.094-2.091.511-.45 1.362-.731 2.553-.845.671-.064 1.139-.001 1.404.189.295.187.463.495.504.922.023.244-.066 1.084-.267 2.521a47.088 47.088 0 00-.439 3.137c-.304 3.264-.405 5.429-.303 6.498.061.641.181 1.091.36 1.351.176.23.432.329.768.297.458-.044.978-.556 1.562-1.536.615-.983 1.215-2.442 1.8-4.377.615-1.937 1.159-4.3 1.632-7.086.157-.939.46-1.631.911-2.074.481-.447 1.225-.718 2.232-.814.702-.067 1.199-.023 1.491.134.29.127.456.419.5.877.073.763-.109 2.89-.545 6.382-.481 3.988-.677 6.441-.59 7.356.056.58.221 1.026.498 1.339.273.282.608.404 1.005.366.611-.059 1.293-.494 2.047-1.305.782-.845 1.794-2.174 3.038-3.987.325-.462.717-.715 1.175-.759.396-.038.719.116.968.462.279.343.449.835.511 1.476.116 1.221-.083 2.195-.599 2.922-1.158 1.743-2.45 3.206-3.877 4.39-1.396 1.181-3.056 1.863-4.979 2.047-1.465.14-2.603-.321-3.413-1.383-.779-1.065-1.267-2.62-1.462-4.665-.321 2.125-.946 3.802-1.876 5.031-.932 1.198-1.994 1.854-3.184 1.967zm19.729-1.886c-1.16.111-2.042-.421-2.647-1.595-.575-1.177-.991-3.109-1.248-5.795-.379-3.968-.175-7.792.613-11.471.19-.912.571-1.595 1.144-2.05.6-.489 1.465-.787 2.594-.895.61-.058 1.045-.023 1.304.106.259.13.408.408.449.835.047.489-.077 1.609-.371 3.362a69.28 69.28 0 00-.426 3.275c-.096.934-.14 2.078-.134 3.432.756-2.721 1.681-4.966 2.775-6.734 1.094-1.768 2.202-3.06 3.326-3.875 1.153-.819 2.234-1.277 3.241-1.373 1.984-.19 3.071.707 3.261 2.691.038.397-.008 1.372-.136 2.924-.128 1.244-.177 2.019-.148 2.324.103 1.069.535 1.566 1.298 1.493.855-.081 1.89-.858 3.104-2.329.359-.435.752-.673 1.179-.714.397-.038.72.116.969.462.276.312.442.759.497 1.339.108 1.129-.112 2.043-.661 2.743a12.78 12.78 0 01-2.803 2.578 7.539 7.539 0 01-3.53 1.262c-1.618.154-2.893-.14-3.827-.882-.903-.745-1.421-1.82-1.555-3.224a6.99 6.99 0 01.006-1.387 15.854 15.854 0 00-.027-1.245c-.047-.488-.238-.716-.574-.684-.458.044-1.019.621-1.682 1.732-.637 1.077-1.241 2.49-1.813 4.239a32.958 32.958 0 00-1.277 5.482c-.199 1.467-.502 2.481-.911 3.044-.38.529-1.044.839-1.99.93zm26.33-2.518c-2.991.286-5.406-.33-7.246-1.849-1.812-1.551-2.85-3.716-3.116-6.494-.236-2.472.045-4.686.843-6.641.799-1.956 1.929-3.511 3.389-4.668 1.46-1.156 3.045-1.816 4.755-1.979 1.678-.161 3.024.219 4.036 1.139 1.039.886 1.634 2.107 1.783 3.664.122 1.282-.064 2.393-.559 3.334-.465.938-1.155 1.45-2.071 1.538-.58.056-1.066-.037-1.459-.276-.362-.243-.566-.608-.613-1.097a3.51 3.51 0 01.021-.741c.035-.281.062-.483.081-.608.109-.473.144-.907.106-1.304-.038-.397-.174-.692-.408-.885-.203-.196-.488-.277-.855-.242-.702.067-1.327.45-1.876 1.15-.553.669-.961 1.555-1.225 2.658-.264 1.103-.335 2.296-.212 3.578.339 3.541 2.049 5.164 5.132 4.869 1.252-.12 2.555-.66 3.911-1.622 1.384-.994 2.697-2.398 3.941-4.211.325-.463.717-.716 1.174-.76.397-.038.72.116.969.462.279.343.449.835.51 1.476.111 1.16-.088 2.134-.598 2.922a15.09 15.09 0 01-4.78 4.615c-1.893 1.136-3.771 1.793-5.633 1.972zm23.636-11.409c.397-.038.719.116.968.462.279.342.449.834.511 1.475.105 1.099-.064 2.07-.507 2.914a8.91 8.91 0 01-3.095 3.391c-1.303.864-2.917 1.388-4.84 1.572-2.93.28-5.287-.372-7.071-1.957-1.787-1.616-2.824-3.92-3.11-6.911-.201-2.106.055-4.102.768-5.987.71-1.916 1.792-3.483 3.246-4.7 1.485-1.22 3.22-1.925 5.204-2.115 1.77-.169 3.241.229 4.411 1.195 1.168.936 1.838 2.304 2.01 4.105.201 2.106-.388 3.995-1.768 5.667-1.353 1.639-3.803 3.075-7.351 4.307.867 1.334 2.171 1.918 3.91 1.752 1.252-.12 2.247-.508 2.985-1.164.768-.658 1.621-1.726 2.558-3.201.323-.493.713-.762 1.171-.805zm-8.275-7.295c-1.13.108-2.028.857-2.696 2.245-.638 1.386-.868 3.009-.69 4.871l.009.092c1.76-.6 3.118-1.377 4.074-2.33.956-.954 1.38-1.996 1.272-3.125-.055-.58-.267-1.022-.635-1.326-.34-.337-.785-.479-1.334-.427zM120.639 114.768v-7.524h-7.02v-2.448h7.02v-7.524h2.736v7.524h7.02v2.448h-7.02v7.524h-2.736zM194.954 21.847l3.125-3.084V9.382L188.698 0h-31.263l-9.382 9.382v-6.25L144.928 0h-12.507l-3.125 3.132v6.25l-6.256 6.256-6.25-6.256v-6.25L113.658 0h-12.507l-3.125 3.132L94.902 0H82.394L79.27 3.132v12.506L63.632 0H51.125L48 3.132v43.77l3.125 3.124h12.507l3.131-3.125V34.395l15.632 15.631h12.507l3.124-3.125V21.888l15.632 15.632V46.9l3.132 3.125h12.506l3.125-3.125V37.52l15.632-15.632v18.764l9.382 9.374h31.263l9.381-9.374V31.27l-3.125-3.132h-15.638v3.132h-12.5V18.763h12.5v3.084h15.638zM195.852 2.11c.295 0 .548-.027.548-.37 0-.287-.281-.322-.514-.322h-.473v.692h.439zm-.432 1.344h-.39V1.089h.897c.569 0 .864.2.864.679 0 .432-.261.603-.617.644l.665 1.042h-.439l-.61-1.015h-.363v1.015h-.007zm.418-2.988c-.925 0-1.644.726-1.644 1.768 0 .973.63 1.768 1.644 1.768.919 0 1.638-.72 1.638-1.768 0-1.042-.719-1.768-1.638-1.768zm0 3.906c-1.226 0-2.104-.918-2.104-2.138 0-1.289.973-2.138 2.104-2.138 1.117 0 2.09.85 2.09 2.138.007 1.281-.966 2.138-2.09 2.138z" fill="currentColor"/><g clip-path="url(#clip0)"><path d="M48.089 65.73c0 5.24 3.215 9.418 8.912 9.418 5.697 0 8.912-4.178 8.912-9.419 0-5.24-3.215-9.419-8.912-9.419-5.697 0-8.912 4.178-8.912 9.42zm4.709 0c0-2.685 1.165-5.369 4.203-5.369 3.038 0 4.203 2.684 4.203 5.368s-1.165 5.368-4.203 5.368c-3.038 0-4.203-2.684-4.203-5.368zm21.783-1.19c1.898 0 2.557 1.847 2.557 3.518 0 1.798-.659 3.798-2.583 3.798-1.95 0-2.608-1.493-2.608-3.797 0-2.71 1.469-3.52 2.634-3.52zm-6.786 14.634h4.304V73.35h.05c.887 1.19 2.128 1.798 3.748 1.798 3.722 0 5.545-3.241 5.545-6.66 0-3.696-1.747-7.24-5.874-7.24-1.52 0-2.785.658-3.62 1.899h-.051v-1.52h-4.102v17.547zm22.48-14.635c1.9 0 2.558 1.848 2.558 3.52 0 1.797-.659 3.797-2.583 3.797-1.95 0-2.608-1.493-2.608-3.797 0-2.71 1.469-3.52 2.633-3.52zM83.49 79.174h4.304V73.35h.05c.887 1.19 2.128 1.798 3.748 1.798 3.722 0 5.545-3.241 5.545-6.66 0-3.696-1.747-7.24-5.874-7.24-1.52 0-2.785.658-3.62 1.899h-.051v-1.52H83.49v17.547zm19.366-10.964c0-1.67.608-3.67 2.608-3.67s2.633 2 2.633 3.67c0 1.672-.633 3.646-2.633 3.646s-2.608-1.974-2.608-3.646zm-4.304 0c0 3.95 2.836 6.938 6.912 6.938 4.076 0 6.937-2.988 6.937-6.938 0-3.95-2.861-6.962-6.937-6.962-4.076 0-6.912 3.013-6.912 6.962zm15.503 6.558h4.305v-6.507c0-1.646 1.114-3.114 3.241-3.114.582 0 1.088.101 1.645.253v-3.925a4.582 4.582 0 00-1.013-.1c-1.848 0-3.316.885-3.949 2.556h-.051v-2.304h-4.178v13.141zm19.567-13.14h-2.659v-3.976h-4.304v3.975h-2.178v2.786h2.178v5.848c0 3.57.937 4.634 4.608 4.634.785 0 1.57-.102 2.355-.127v-3.165c-.38 0-.76.05-1.114.05-.937 0-1.545-.227-1.545-1.265v-5.975h2.659v-2.786zm15.233 0h-4.304v7.038c0 2.33-1.418 2.937-2.355 2.937-1.367 0-2.126-.607-2.126-2.354v-7.622h-4.305v7.9c0 3.443 1.089 5.62 4.862 5.62 1.519 0 3.19-.835 4-2.177h.051v1.798h4.177v-13.14zm2.884 13.14h4.304v-7.165c0-1.443.709-2.81 2.329-2.81 2.355 0 2.152 1.822 2.152 3.62v6.355h4.305v-8.431c0-1.9-.355-5.09-4.735-5.09-1.57 0-3.342.836-4.127 2.178h-.051v-1.798h-4.177v13.141zm15.593 0h4.305v-13.14h-4.305v13.14zm4.305-18.078h-4.305v3.292h4.305V56.69zm10.96 4.937h-2.658v-3.975h-4.305v3.975h-2.177v2.786h2.177v5.848c0 3.57.937 4.634 4.609 4.634.784 0 1.569-.102 2.354-.127v-3.165c-.38 0-.759.05-1.114.05-.937 0-1.544-.227-1.544-1.265v-5.975h2.658v-2.786zm15.285 0h-4.406l-2.481 8.558h-.051l-2.481-8.558h-4.558l3.393 9.14c.253.71 1.089 2.735 1.089 3.444 0 .912-.734 1.469-1.722 1.469h-1.494v3.494h2.026c2.912 0 4.456-.355 5.494-3.241l5.191-14.306z" fill="currentColor"/></g><defs><clipPath id="clip0"><path fill="#fff" transform="translate(48 56.28)" d="M0 0h150.408v23.038H0z"/></clipPath></defs></svg>