<?xml version="1.0" encoding="UTF-8"?><!DOCTYPE svg PUBLIC "-//W3C//DTD SVG 1.1//EN" "http://www.w3.org/Graphics/SVG/1.1/DTD/svg11.dtd"><svg xmlns="http://www.w3.org/2000/svg" xmlns:xlink="http://www.w3.org/1999/xlink"><defs><clipPath id="clip0"><path fill="#fff" transform="translate(48 56.28)" d="M0 0H150.408V23.038H0z"/></clipPath><clipPath id="clip0_2805_215"><path fill="#fff" d="M0 0H154V152H0z"/></clipPath><clipPath id="clip0"><path d="M0 0H32V32H0z"/></clipPath><clipPath id="clip0"><path d="M0 0H32V32H0z"/></clipPath></defs><symbol id="pttrn-logo-nyco-and-open-source" viewBox="0 0 248 190"><path d="M20.8475 170.726C18.131 170.986 15.6154 170.611 13.301 169.6 11.017 168.586 9.1217 166.965 7.61494 164.738 6.10526 162.479 5.19278 159.702 4.87752 156.406 4.4338 151.766 4.88203 147.596 6.2222 143.894 7.59289 140.19 9.63615 137.238 12.352 135.038 15.0983 132.834 18.2418 131.563 21.7826 131.225 24.4992 130.965 26.9994 131.342 29.2833 132.356 31.5978 133.366 33.5099 135.001 35.0195 137.259 36.5263 139.487 37.4373 142.249 37.7526 145.545 38.1963 150.185 37.7328 154.357 36.3621 158.061 35.022 161.762 32.9787 164.715 30.2324 166.918 27.5165 169.118 24.3883 170.388 20.8475 170.726ZM20.7887 165.28C23.1695 165.052 25.1903 164.12 26.8511 162.482 28.5424 160.842 29.7523 158.678 30.481 155.99 31.2067 153.271 31.4119 150.264 31.0966 146.967 30.7492 143.335 29.7234 140.661 28.0192 138.945 26.312 137.199 24.2528 136.441 21.8414 136.671 19.4911 136.896 17.4856 137.827 15.8248 139.464 14.1611 141.071 12.9512 143.235 12.1949 145.957 11.4358 148.648 11.2153 151.656 11.5335 154.984 11.8809 158.616 12.9081 161.305 14.6153 163.052 16.3196 164.768 18.3773 165.51 20.7887 165.28ZM65.1035 155.959C65.5004 155.921 65.8231 156.075 66.0718 156.421 66.351 156.764 66.5213 157.256 66.5826 157.897 66.6993 159.118 66.4999 160.092 65.9841 160.819 64.8263 162.562 63.534 164.026 62.1071 165.209 60.7107 166.39 59.051 167.073 57.128 167.256 55.5103 167.411 54.1423 166.957 53.0241 165.893 51.3923 167.189 49.6316 167.943 47.742 168.154 47.9086 174.083 47.4782 179.083 46.4507 183.155 45.4261 187.258 43.5555 189.439 40.8389 189.698 39.1906 189.856 37.9128 189.378 37.0053 188.263 36.0979 187.149 35.5434 185.538 35.342 183.432 35.0559 180.441 35.4085 176.88 36.3996 172.75 37.3937 168.651 39.0962 164.068 41.507 159.001 41.0809 154.545 40.754 151.45 40.5266 149.716 40.4114 148.833 40.6953 148.098 41.3782 147.509 42.0612 146.92 42.9521 146.573 44.0509 146.468 44.6919 146.407 45.1629 146.5 45.4639 146.749 45.7925 146.964 46.0085 147.451 46.112 148.211 46.185 148.974 46.2542 149.538 46.3198 149.901 47.1798 148.587 48.0581 147.625 48.9547 147.015 49.8484 146.375 50.8294 146.004 51.8977 145.902 53.607 145.739 55.0615 146.293 56.2612 147.564 57.4914 148.833 58.213 150.581 58.4261 152.809 58.5809 154.427 58.4717 156.024 58.0988 157.599 57.7259 159.175 57.1414 160.633 56.3454 161.972 57.0039 162.093 57.5468 162.134 57.9741 162.093 58.9814 161.997 59.9078 161.539 60.7535 160.718 61.5991 159.898 62.6575 158.565 63.9287 156.718 64.2541 156.256 64.6457 156.003 65.1035 155.959ZM47.5506 163.737C48.6261 163.388 49.5765 162.696 50.4017 161.662 51.2545 160.595 51.8885 159.333 52.3036 157.876 52.7158 156.389 52.8475 154.867 52.6986 153.311 52.611 152.395 52.3622 151.726 51.9521 151.303 51.5392 150.85 51.0274 150.652 50.417 150.71 49.3181 150.816 48.1013 152.102 46.7664 154.571 46.8644 155.917 47.0374 157.887 47.2855 160.482 47.4198 161.886 47.5082 162.971 47.5506 163.737ZM40.7761 185.177C41.6002 185.098 42.1148 183.231 42.3197 179.577 42.5276 175.953 42.4524 171.463 42.0942 166.107 41.0736 169.285 40.3146 172.299 39.8171 175.15 39.3197 178 39.1615 180.372 39.3424 182.264 39.4359 183.241 39.6295 183.977 39.9233 184.473 40.1866 184.971 40.4708 185.206 40.7761 185.177ZM79.2198 155.995C79.6166 155.957 79.9393 156.111 80.188 156.457 80.4672 156.8 80.6375 157.292 80.6988 157.933 80.8039 159.032 80.6349 160.003 80.1919 160.846 79.4628 162.24 78.4312 163.371 77.0972 164.238 75.7937 165.102 74.1805 165.626 72.2575 165.81 69.3273 166.09 66.9701 165.437 65.1859 163.852 63.3989 162.237 62.3623 159.933 62.0762 156.942 61.8748 154.836 62.1306 152.84 62.8435 150.954 63.5535 149.038 64.6358 147.472 66.0904 146.254 67.5754 145.034 69.3099 144.329 71.294 144.14 73.0643 143.97 74.5347 144.369 75.7052 145.335 76.8728 146.271 77.5427 147.639 77.7149 149.44 77.9164 151.546 77.327 153.435 75.9468 155.107 74.5941 156.746 72.144 158.181 68.5964 159.414 69.4632 160.748 70.7666 161.332 72.5064 161.165 73.7579 161.046 74.7527 160.658 75.4908 160.002 76.2595 159.343 77.1123 158.276 78.0493 156.8 78.3718 156.307 78.7619 156.039 79.2198 155.995ZM70.9447 148.701C69.8154 148.809 68.9166 149.557 68.2486 150.946 67.611 152.331 67.3812 153.955 67.5593 155.817L67.5681 155.908C69.3281 155.309 70.6861 154.532 71.6422 153.578 72.5982 152.624 73.0223 151.583 72.9143 150.453 72.8588 149.873 72.6471 149.431 72.2793 149.128 71.939 148.791 71.4942 148.648 70.9447 148.701ZM85.7702 164.517C84.6103 164.628 83.7278 164.096 83.1227 162.922 82.548 161.745 82.1323 159.814 81.8754 157.127 81.4959 153.159 81.7001 149.336 82.4879 145.656 82.678 144.745 83.0593 144.062 83.6318 143.607 84.2319 143.118 85.0966 142.82 86.226 142.712 86.8365 142.653 87.2711 142.689 87.5299 142.818 87.7887 142.947 87.9385 143.225 87.9794 143.653 88.0261 144.141 87.9022 145.262 87.6079 147.015 87.4194 148.265 87.2774 149.357 87.1818 150.29 87.0862 151.223 87.0416 152.367 87.048 153.722 87.8042 151.001 88.7292 148.756 89.8231 146.988 90.9169 145.22 92.0254 143.928 93.1487 143.112 94.3025 142.293 95.3831 141.836 96.3903 141.739 97.3671 141.646 98.1245 141.835 98.6625 142.308 99.2281 142.746 99.5576 143.454 99.651 144.431 99.7269 145.225 99.702 146.736 99.5765 148.966 99.4493 150.857 99.3744 152.651 99.3518 154.347 99.3263 156.013 99.4114 157.868 99.6069 159.913 99.7179 161.073 99.554 161.936 99.1152 162.502 98.7041 163.034 97.9643 163.351 96.896 163.453 95.8887 163.55 95.1314 163.36 94.6239 162.885 94.1164 162.41 93.813 161.653 93.7138 160.616 93.597 159.395 93.618 157.36 93.7768 154.511 93.9095 152.034 93.9438 150.46 93.8796 149.788 93.8329 149.3 93.6416 149.072 93.3059 149.104 92.9091 149.142 92.394 149.715 91.7607 150.822 91.155 151.897 90.5509 153.31 89.9484 155.062 89.3763 156.811 88.9504 158.638 88.6707 160.544 88.4721 162.01 88.1687 163.025 87.7605 163.588 87.3799 164.117 86.7164 164.427 85.7702 164.517ZM108.634 150.733C107.871 150.806 107.254 150.634 106.783 150.217 106.309 149.77 106.031 149.119 105.949 148.264 105.87 147.44 106.024 146.794 106.41 146.326 106.797 145.857 107.372 145.587 108.135 145.514L121.275 144.257C122.862 144.105 123.736 144.869 123.897 146.548 123.979 147.402 123.829 148.094 123.448 148.624 123.095 149.119 122.537 149.404 121.774 149.477L108.634 150.733ZM140.065 160.341C138.478 160.493 137.222 160.243 136.297 159.593 135.403 158.939 134.912 158.154 134.824 157.238 134.748 156.445 134.973 155.73 135.497 155.095 136.022 154.46 136.848 154.088 137.978 153.98 138.375 153.942 138.837 153.944 139.365 153.986 139.92 153.994 140.336 154.001 140.614 154.005 140.507 153.214 140.253 152.484 139.85 151.814 139.478 151.141 139.016 150.508 138.467 149.913 137.914 149.288 137.401 148.752 136.927 148.305 136.153 150.196 135.35 151.782 134.517 153.063 133.715 154.341 132.816 155.567 131.82 156.74 131.323 157.342 130.769 157.672 130.158 157.731 129.67 157.778 129.257 157.648 128.92 157.341 128.58 157.004 128.385 156.576 128.335 156.057 128.277 155.447 128.436 154.862 128.814 154.302L129.339 153.512C130.819 151.276 131.923 149.446 132.649 148.021 133.083 147.086 133.581 145.853 134.143 144.32 134.702 142.757 135.242 141.15 135.761 139.499 136.213 138.1 137.354 137.314 139.186 137.138 140.04 137.057 140.643 137.076 140.993 137.197 141.344 137.317 141.535 137.545 141.567 137.881 141.584 138.064 141.551 138.36 141.467 138.768 141.383 139.177 141.253 139.59 141.077 140.007 140.633 141.158 140.447 142.116 140.52 142.879 140.564 143.337 140.765 143.826 141.122 144.346 141.511 144.863 142.08 145.502 142.83 146.262 143.93 147.45 144.767 148.479 145.343 149.348 145.947 150.184 146.3 151.136 146.402 152.204 146.431 152.509 146.441 152.939 146.433 153.495 147.873 152.772 149.481 151.062 151.256 148.367 151.581 147.904 151.973 147.651 152.431 147.608 152.828 147.57 153.15 147.724 153.399 148.069 153.678 148.412 153.849 148.904 153.91 149.545 154.021 150.705 153.821 151.679 153.312 152.467 151.966 154.506 150.625 155.943 149.288 156.779 147.979 157.582 146.305 158.112 144.265 158.368 143.144 159.523 141.744 160.181 140.065 160.341ZM172.976 141.762C173.373 141.724 173.697 141.893 173.948 142.269 174.2 142.646 174.355 143.139 174.413 143.749 174.554 145.215 174.194 146.127 173.335 146.486 171.565 147.302 169.586 147.861 167.397 148.163 167.062 150.782 166.114 152.952 164.554 154.672 162.991 156.362 161.125 157.311 158.958 157.518 157.127 157.693 155.512 157.401 154.115 156.641 152.749 155.878 151.66 154.797 150.848 153.396 150.036 151.995 149.549 150.44 149.385 148.73 149.163 146.411 149.409 144.308 150.122 142.422 150.832 140.506 151.917 138.97 153.377 137.814 154.835 136.627 156.51 135.944 158.402 135.763 160.722 135.541 162.661 136.172 164.22 137.655 165.807 139.105 166.834 140.994 167.303 143.321 168.729 143.092 170.409 142.623 172.344 141.914 172.582 141.83 172.793 141.779 172.976 141.762ZM158.86 152.63C159.837 152.536 160.639 152.059 161.265 151.198 161.921 150.335 162.3 149.143 162.401 147.624 161.394 147.074 160.581 146.304 159.963 145.316 159.375 144.325 159.026 143.25 158.915 142.09 158.868 141.601 158.867 141.109 158.912 140.612L158.683 140.633C157.462 140.75 156.497 141.443 155.786 142.712 155.104 143.948 154.865 145.634 155.069 147.771 155.23 149.45 155.673 150.701 156.398 151.525 157.154 152.346 157.975 152.714 158.86 152.63ZM176.319 155.857C174.945 155.989 173.756 155.471 172.751 154.304 171.774 153.104 171.195 151.558 171.014 149.665 170.795 147.376 170.747 145.271 170.872 143.349 170.993 141.397 171.302 139.319 171.8 137.115 172.018 136.17 172.382 135.473 172.894 135.024 173.405 134.574 174.256 134.293 175.447 134.179 176.118 134.115 176.586 134.178 176.851 134.368 177.146 134.555 177.314 134.863 177.355 135.29 177.378 135.534 177.289 136.374 177.088 137.811 176.89 138.969 176.744 140.015 176.649 140.948 176.345 144.212 176.244 146.377 176.346 147.446 176.407 148.087 176.527 148.537 176.706 148.797 176.882 149.027 177.138 149.126 177.474 149.094 177.932 149.05 178.452 148.538 179.036 147.558 179.651 146.575 180.251 145.116 180.836 143.181 181.451 141.244 181.995 138.881 182.468 136.095 182.625 135.156 182.928 134.464 183.379 134.021 183.86 133.574 184.604 133.303 185.611 133.207 186.313 133.14 186.81 133.184 187.102 133.341 187.392 133.468 187.558 133.76 187.602 134.218 187.675 134.981 187.493 137.108 187.057 140.6 186.576 144.588 186.38 147.041 186.467 147.956 186.523 148.536 186.688 148.982 186.965 149.295 187.238 149.577 187.573 149.699 187.97 149.661 188.581 149.602 189.263 149.167 190.017 148.356 190.799 147.511 191.811 146.182 193.055 144.369 193.38 143.907 193.772 143.654 194.23 143.61 194.626 143.572 194.949 143.726 195.198 144.072 195.477 144.415 195.647 144.907 195.709 145.548 195.825 146.769 195.626 147.743 195.11 148.47 193.952 150.213 192.66 151.676 191.233 152.86 189.837 154.041 188.177 154.723 186.254 154.907 184.789 155.047 183.651 154.586 182.841 153.524 182.062 152.459 181.574 150.904 181.379 148.859 181.058 150.984 180.433 152.661 179.503 153.89 178.571 155.088 177.509 155.744 176.319 155.857ZM196.048 153.971C194.888 154.082 194.006 153.55 193.401 152.376 192.826 151.199 192.41 149.267 192.153 146.581 191.774 142.613 191.978 138.789 192.766 135.11 192.956 134.198 193.337 133.515 193.91 133.06 194.51 132.571 195.375 132.273 196.504 132.165 197.114 132.107 197.549 132.142 197.808 132.271 198.067 132.401 198.216 132.679 198.257 133.106 198.304 133.595 198.18 134.715 197.886 136.468 197.697 137.719 197.555 138.81 197.46 139.743 197.364 140.677 197.32 141.821 197.326 143.175 198.082 140.454 199.007 138.209 200.101 136.441 201.195 134.673 202.303 133.381 203.427 132.566 204.58 131.747 205.661 131.289 206.668 131.193 208.652 131.003 209.739 131.9 209.929 133.884 209.967 134.281 209.921 135.256 209.793 136.808 209.665 138.052 209.616 138.827 209.645 139.132 209.748 140.201 210.18 140.698 210.943 140.625 211.798 140.544 212.833 139.767 214.047 138.296 214.406 137.861 214.799 137.623 215.226 137.582 215.623 137.544 215.946 137.698 216.195 138.044 216.471 138.356 216.637 138.803 216.692 139.383 216.8 140.512 216.58 141.426 216.031 142.126 215.261 143.093 214.326 143.952 213.228 144.704 212.157 145.422 210.98 145.843 209.698 145.966 208.08 146.12 206.805 145.826 205.871 145.084 204.968 144.339 204.45 143.264 204.316 141.86 204.272 141.402 204.274 140.94 204.322 140.473 204.324 139.857 204.315 139.442 204.295 139.228 204.248 138.74 204.057 138.512 203.721 138.544 203.263 138.588 202.702 139.165 202.039 140.276 201.402 141.353 200.798 142.766 200.226 144.515 199.654 146.264 199.228 148.091 198.949 149.997 198.75 151.464 198.447 152.478 198.038 153.041 197.658 153.57 196.994 153.88 196.048 153.971ZM222.378 151.453C219.387 151.739 216.972 151.123 215.132 149.604 213.32 148.053 212.282 145.888 212.016 143.11 211.78 140.638 212.061 138.424 212.859 136.469 213.658 134.513 214.788 132.958 216.248 131.801 217.708 130.645 219.293 129.985 221.003 129.822 222.681 129.661 224.027 130.041 225.039 130.961 226.078 131.847 226.673 133.068 226.822 134.625 226.944 135.907 226.758 137.018 226.263 137.959 225.798 138.897 225.108 139.409 224.192 139.497 223.612 139.553 223.126 139.46 222.733 139.221 222.371 138.978 222.167 138.613 222.12 138.124 222.1 137.911 222.107 137.663 222.141 137.383 222.176 137.102 222.203 136.9 222.222 136.775 222.331 136.302 222.366 135.868 222.328 135.471 222.29 135.074 222.154 134.779 221.92 134.586 221.717 134.39 221.432 134.309 221.065 134.344 220.363 134.411 219.738 134.794 219.189 135.494 218.636 136.163 218.228 137.049 217.964 138.152 217.7 139.255 217.629 140.448 217.752 141.73 218.091 145.271 219.801 146.894 222.884 146.599 224.136 146.479 225.439 145.939 226.795 144.977 228.179 143.983 229.492 142.579 230.736 140.766 231.061 140.303 231.453 140.05 231.91 140.006 232.307 139.968 232.63 140.122 232.879 140.468 233.158 140.811 233.328 141.303 233.389 141.944 233.5 143.104 233.301 144.078 232.791 144.866 231.526 146.774 229.932 148.312 228.011 149.481 226.118 150.617 224.24 151.274 222.378 151.453ZM246.014 140.044C246.411 140.006 246.733 140.16 246.982 140.506 247.261 140.848 247.431 141.34 247.493 141.981 247.598 143.08 247.429 144.051 246.986 144.895 246.257 146.289 245.225 147.419 243.891 148.286 242.588 149.15 240.974 149.674 239.051 149.858 236.121 150.138 233.764 149.486 231.98 147.901 230.193 146.285 229.156 143.981 228.87 140.99 228.669 138.884 228.925 136.888 229.638 135.003 230.348 133.087 231.43 131.52 232.884 130.303 234.369 129.083 236.104 128.378 238.088 128.188 239.858 128.019 241.329 128.417 242.499 129.383 243.667 130.319 244.337 131.687 244.509 133.488 244.71 135.594 244.121 137.483 242.741 139.155 241.388 140.794 238.938 142.23 235.39 143.462 236.257 144.796 237.561 145.38 239.3 145.214 240.552 145.094 241.547 144.706 242.285 144.05 243.053 143.392 243.906 142.324 244.843 140.849 245.166 140.356 245.556 140.087 246.014 140.044ZM237.739 132.749C236.609 132.857 235.711 133.606 235.043 134.994 234.405 136.38 234.175 138.003 234.353 139.865L234.362 139.957C236.122 139.357 237.48 138.58 238.436 137.627 239.392 136.673 239.816 135.631 239.708 134.502 239.653 133.922 239.441 133.48 239.073 133.176 238.733 132.839 238.288 132.697 237.739 132.749ZM120.639 114.768V107.244H113.619V104.796H120.639V97.272H123.375V104.796H130.395V107.244H123.375V114.768H120.639ZM194.954 21.8472 198.079 18.7633V9.38167L188.698 0H157.435L148.053 9.38167V3.13179L144.928 0H132.421L129.296 3.13179V9.38167L123.04 15.6384 116.79 9.38167V3.13179L113.658 0H101.151L98.0264 3.13179 94.9015 0H82.3949L79.2699 3.13179V15.6384L63.6315 0H51.1249L48 3.13179V46.9015L51.1249 50.0264H63.6315L66.7633 46.9015V34.3949L82.3949 50.0264H94.9015L98.0264 46.9015V21.8883L113.658 37.5198V46.9015L116.79 50.0264H129.296L132.421 46.9015V37.5198L148.053 21.8883V40.6516L157.435 50.0264H188.698L198.079 40.6516V31.2699L194.954 28.1382H179.316V31.2699H166.816V18.7633H179.316V21.8472H194.954ZM195.852 2.11047C196.147 2.11047 196.4 2.08305 196.4 1.74041 196.4 1.45258 196.119 1.41832 195.886 1.41832H195.413V2.11047H195.852ZM195.42 3.45364H195.03V1.08938H195.927C196.496 1.08938 196.791 1.28811 196.791 1.76782 196.791 2.19955 196.53 2.37088 196.174 2.412L196.839 3.45364H196.4L195.79 2.43941H195.427V3.45364H195.42ZM195.838.465762C194.913.465762 194.194 1.19217 194.194 2.23382 194.194 3.20694 194.824 4.00188 195.838 4.00188 196.757 4.00188 197.476 3.28232 197.476 2.23382 197.476 1.19217 196.757.465762 195.838.465762ZM195.838 4.37193C194.612 4.37193 193.734 3.45364 193.734 2.23382 193.734.945467 194.707.0957031 195.838.0957031 196.955.0957031 197.928.945467 197.928 2.23382 197.935 3.51532 196.962 4.37193 195.838 4.37193Z" fill="currentColor"/><g clip-path="url(#clip0)"><path d="M48.0887 65.7291C48.0887 70.9702 51.3042 75.1479 57.001 75.1479C62.6978 75.1479 65.9133 70.9702 65.9133 65.7291C65.9133 60.4881 62.6978 56.3104 57.001 56.3104C51.3042 56.3104 48.0887 60.4881 48.0887 65.7291ZM52.798 65.7291C52.798 63.0453 53.9627 60.3615 57.001 60.3615C60.0393 60.3615 61.204 63.0453 61.204 65.7291C61.204 68.413 60.0393 71.0968 57.001 71.0968C53.9627 71.0968 52.798 68.413 52.798 65.7291ZM74.5806 64.5391C76.4795 64.5391 77.1378 66.3874 77.1378 68.0585C77.1378 69.8562 76.4795 71.8564 74.5552 71.8564C72.6057 71.8564 71.9474 70.3625 71.9474 68.0585C71.9474 65.3494 73.4159 64.5391 74.5806 64.5391ZM67.795 79.1736H72.0993V73.3502H72.1499C73.0361 74.5402 74.2767 75.1479 75.8972 75.1479C79.6191 75.1479 81.442 71.907 81.442 68.4889C81.442 64.7923 79.695 61.2477 75.568 61.2477C74.0489 61.2477 72.7829 61.906 71.9474 63.1466H71.8967V61.6274H67.795V79.1736ZM90.2754 64.5391C92.1744 64.5391 92.8327 66.3874 92.8327 68.0585C92.8327 69.8562 92.1744 71.8564 90.2501 71.8564C88.3006 71.8564 87.6423 70.3625 87.6423 68.0585C87.6423 65.3494 89.1108 64.5391 90.2754 64.5391ZM83.4899 79.1736H87.7942V73.3502H87.8448C88.731 74.5402 89.9716 75.1479 91.592 75.1479C95.3139 75.1479 97.1369 71.907 97.1369 68.4889C97.1369 64.7923 95.3899 61.2477 91.2629 61.2477C89.7437 61.2477 88.4778 61.906 87.6423 63.1466H87.5916V61.6274H83.4899V79.1736ZM102.856 68.2104C102.856 66.5394 103.464 64.5391 105.464 64.5391C107.464 64.5391 108.097 66.5394 108.097 68.2104C108.097 69.8815 107.464 71.8564 105.464 71.8564C103.464 71.8564 102.856 69.8815 102.856 68.2104ZM98.5518 68.2104C98.5518 72.1602 101.388 75.1479 105.464 75.1479C109.54 75.1479 112.401 72.1602 112.401 68.2104C112.401 64.2606 109.54 61.2477 105.464 61.2477C101.388 61.2477 98.5518 64.2606 98.5518 68.2104ZM114.055 74.7681H118.36V68.2611C118.36 66.6153 119.474 65.1468 121.601 65.1468C122.183 65.1468 122.689 65.2481 123.246 65.4V61.4755C122.917 61.3996 122.563 61.3743 122.233 61.3743C120.385 61.3743 118.917 62.2604 118.284 63.9315H118.233V61.6274H114.055V74.7681ZM133.622 61.6274H130.963V57.6523H126.659V61.6274H124.481V64.4126H126.659V70.2613C126.659 73.8313 127.596 74.8947 131.267 74.8947C132.052 74.8947 132.837 74.7934 133.622 74.7681V71.6032C133.242 71.6032 132.862 71.6538 132.508 71.6538C131.571 71.6538 130.963 71.4259 130.963 70.3879V64.4126H133.622V61.6274ZM148.855 61.6274H144.551V68.6662C144.551 70.9955 143.133 71.6032 142.196 71.6032C140.829 71.6032 140.07 70.9955 140.07 69.2485V61.6274H135.765V69.527C135.765 72.9704 136.854 75.1479 140.627 75.1479C142.146 75.1479 143.817 74.3123 144.627 72.9704H144.678V74.7681H148.855V61.6274ZM151.739 74.7681H156.043V67.6028C156.043 66.1596 156.752 64.7923 158.372 64.7923C160.727 64.7923 160.524 66.6153 160.524 68.413V74.7681H164.829V66.3368C164.829 64.4379 164.474 61.2477 160.094 61.2477C158.524 61.2477 156.752 62.0832 155.967 63.4251H155.916V61.6274H151.739V74.7681ZM167.332 74.7681H171.637V61.6274H167.332V74.7681ZM171.637 56.6902H167.332V59.9817H171.637V56.6902ZM182.597 61.6274H179.939V57.6523H175.634V61.6274H173.457V64.4126H175.634V70.2613C175.634 73.8313 176.571 74.8947 180.243 74.8947C181.027 74.8947 181.812 74.7934 182.597 74.7681V71.6032C182.217 71.6032 181.838 71.6538 181.483 71.6538C180.546 71.6538 179.939 71.4259 179.939 70.3879V64.4126H182.597V61.6274ZM197.882 61.6274H193.476L190.995 70.1853H190.944L188.463 61.6274H183.905L187.298 70.7676C187.551 71.4766 188.387 73.5021 188.387 74.211C188.387 75.1225 187.653 75.6796 186.665 75.6796H185.171V79.1736H187.197C190.109 79.1736 191.653 78.8191 192.691 75.9327L197.882 61.6274Z" fill="currentColor"/></g></symbol><symbol id="pttrn-logo-nyc-loves-open-source-favicon" viewBox="0 0 154 152"><g clip-path="url(#clip0_2805_215)" fill="#1642DF"><path d="M153.744 4.84564V14.2819V33.1544L129.657 56.8725V71.1541L124.789 76H139.138L153.488 90.2822V104.564L148.619 109.154H124.533V104.564H105.314V123.436H124.533V118.59H148.619L153.488 123.436V137.718L139.138 152H91.2213L76.8718 137.208V90.0267L91.2213 75.7451H105.571L100.702 70.8992V56.6174L76.8718 33.1544V70.8992L72.0035 75.7451H52.7853L28.6988 52.0269V70.8992L23.8303 75.7451H4.86855L0 70.8992V4.5906L4.86855 0H24.0865L48.173 23.7181V4.84564L52.7853 0H72.0035L76.8718 4.84564L81.7406 0H100.958L105.827 4.84564V14.2819L115.308 23.7181L125.045 14.2819V4.84564L129.657 0H148.875L153.744 4.84564Z"/><path d="M150.282 79.0626C150.739 79.0626 151.132 79.021 151.132 78.5001C151.132 78.0626 150.696 78.0105 150.335 78.0105H149.602V79.0626H150.282ZM149.613 81.1043H149.007V77.5105H150.399C151.28 77.5105 151.737 77.8126 151.737 78.5418C151.737 79.198 151.333 79.4585 150.781 79.521L151.811 81.1043H151.132L150.186 79.5626H149.623V81.1043H149.613ZM150.261 76.5626C148.827 76.5626 147.712 77.6668 147.712 79.2501C147.712 80.7293 148.689 81.9376 150.261 81.9376C151.684 81.9376 152.799 80.8439 152.799 79.2501C152.799 77.6668 151.684 76.5626 150.261 76.5626ZM150.261 82.5001C148.359 82.5001 147 81.1043 147 79.2501C147 77.2918 148.508 76.0001 150.261 76.0001C151.992 76.0001 153.5 77.2918 153.5 79.2501C153.511 81.198 152.002 82.5001 150.261 82.5001Z"/></g><path d="M67.6158 118.925L36.9803 152L6.34481 118.925C2.28231 114.539 0 108.59 0 102.388C0 96.1848 2.28231 90.2361 6.34481 85.85C10.4073 81.464 15.9173 79 21.6626 79C27.4078 79 32.9176 81.464 36.9803 85.85C41.0429 81.464 46.5527 79 52.2982 79C58.0434 79 63.5532 81.464 67.6158 85.85C71.6784 90.2361 73.9605 96.1848 73.9605 102.388C73.9605 108.59 71.6784 114.539 67.6158 118.925Z" fill="#FC5D52"/></symbol><symbol id="pttrn-a-perfect-heart" viewBox="0 0 32 32"><g clip-path="url(#clip0)"><path d="M28.1051 17.8441L16.183 29.7662L4.26094 17.8441C2.67998 16.2632 1.7918 14.1189 1.7918 11.8831C1.7918 9.64729 2.67998 7.50304 4.26094 5.92207C5.84191 4.34111 7.98616 3.45293 10.222 3.45293C12.4578 3.45293 14.602 4.34111 16.183 5.92207C17.764 4.34111 19.9082 3.45293 22.1441 3.45293C24.3799 3.45293 26.5241 4.34111 28.1051 5.92207C29.6861 7.50304 30.5742 9.64729 30.5742 11.8831C30.5742 14.1189 29.6861 16.2632 28.1051 17.8441L28.1051 17.8441Z" fill="currentColor"/></g></symbol><symbol id="pttrn-a-perfect-heart-red" viewBox="0 0 32 32"><g clip-path="url(#clip0)"><path d="M28.1051 17.8441L16.183 29.7662L4.26094 17.8441C2.67998 16.2632 1.7918 14.1189 1.7918 11.8831C1.7918 9.64729 2.67998 7.50304 4.26094 5.92207C5.84191 4.34111 7.98616 3.45293 10.222 3.45293C12.4578 3.45293 14.602 4.34111 16.183 5.92207C17.764 4.34111 19.9082 3.45293 22.1441 3.45293C24.3799 3.45293 26.5241 4.34111 28.1051 5.92207C29.6861 7.50304 30.5742 9.64729 30.5742 11.8831C30.5742 14.1189 29.6861 16.2632 28.1051 17.8441L28.1051 17.8441Z" fill="#FC5D52"/></g></symbol></svg>