<svg width="256" height="49" viewBox="0 0 256 49" fill="none" xmlns="http://www.w3.org/2000/svg">
<path d="M130.934 20.0519L133.718 17.3043V8.9454L125.359 0.586487H97.5044L89.1455 8.9454V3.37686L86.3612 0.586487H75.218L72.4337 3.37686V8.9454L66.8591 14.52L61.2906 8.9454V3.37686L58.5002 0.586487H47.357L44.5727 3.37686L41.7885 0.586487H30.6453L27.861 3.37686V14.52L13.9275 0.586487H2.78427L0 3.37686V42.3749L2.78427 45.1592H13.9275L16.7178 42.3749V31.2318L30.6453 45.1592H41.7885L44.5727 42.3749V20.0886L58.5002 34.016V42.3749L61.2906 45.1592H72.4337L75.218 42.3749V34.016L89.1455 20.0886V36.8064L97.5044 45.1592H125.359L133.718 36.8064V28.4475L130.934 25.6571H117V28.4475H105.863V17.3043H117V20.0519H130.934Z" fill="#1642DF"/>
<path d="M131.734 2.4671C131.996 2.4671 132.222 2.44267 132.222 2.13738C132.222 1.88093 131.972 1.8504 131.764 1.8504H131.343V2.4671H131.734ZM131.349 3.66384H131.001V1.55732H131.801C132.308 1.55732 132.57 1.73439 132.57 2.1618C132.57 2.54647 132.338 2.69912 132.021 2.73575L132.613 3.66384H132.222L131.679 2.76018H131.355V3.66384H131.349ZM131.722 1.00169C130.897 1.00169 130.256 1.64891 130.256 2.577C130.256 3.44403 130.818 4.15231 131.722 4.15231C132.54 4.15231 133.181 3.5112 133.181 2.577C133.181 1.64891 132.54 1.00169 131.722 1.00169ZM131.722 4.48203C130.629 4.48203 129.847 3.66384 129.847 2.577C129.847 1.4291 130.714 0.671974 131.722 0.671974C132.717 0.671974 133.584 1.4291 133.584 2.577C133.59 3.7188 132.723 4.48203 131.722 4.48203Z" fill="#1642DF"/>
<path d="M144.992 12H147.712V3.57634H147.743L150.074 12H152.281L154.612 3.57634H154.643V12H157.363V0.903148H153.105L151.193 8.30105H151.162L149.25 0.903148H144.992V12ZM161.463 9.68427C161.463 9.04706 161.96 8.79839 162.551 8.65851C163.126 8.50309 163.81 8.45647 164.183 8.22334C164.245 9.88631 163.825 10.6012 162.566 10.6012C161.976 10.6012 161.463 10.337 161.463 9.68427ZM161.618 6.42049C161.743 5.73665 162.209 5.41027 162.939 5.41027C163.483 5.41027 164.214 5.6434 164.214 6.24953C164.214 6.74687 163.965 6.90229 163.514 6.99554C161.68 7.36854 158.821 7.1665 158.821 9.79306C158.821 11.456 160.033 12.2331 161.572 12.2331C162.535 12.2331 163.545 11.9534 164.229 11.2385C164.26 11.5027 164.291 11.7513 164.385 12H167.042C166.731 11.3628 166.731 10.6168 166.731 9.93294V6.40495C166.731 4.1203 164.882 3.70067 162.97 3.70067C162.053 3.70067 161.121 3.85609 160.406 4.26018C159.691 4.67981 159.194 5.36365 159.147 6.42049H161.618ZM176.519 3.9338H173.815L172.292 9.18693H172.261L170.738 3.9338H167.94L170.023 9.54439C170.178 9.97956 170.691 11.2229 170.691 11.6581C170.691 12.2176 170.24 12.5595 169.634 12.5595H168.717V14.7043H169.961C171.748 14.7043 172.696 14.4867 173.333 12.7149L176.519 3.9338ZM179.536 7.97467C179.536 6.94891 179.909 5.72111 181.137 5.72111C182.365 5.72111 182.753 6.94891 182.753 7.97467C182.753 9.00043 182.365 10.2127 181.137 10.2127C179.909 10.2127 179.536 9.00043 179.536 7.97467ZM176.894 7.97467C176.894 10.3992 178.635 12.2331 181.137 12.2331C183.639 12.2331 185.395 10.3992 185.395 7.97467C185.395 5.55015 183.639 3.70067 181.137 3.70067C178.635 3.70067 176.894 5.55015 176.894 7.97467ZM186.877 12H189.519V8.00576C189.519 6.99554 190.203 6.09411 191.508 6.09411C191.866 6.09411 192.177 6.15628 192.519 6.24953V3.84055C192.317 3.79392 192.099 3.77838 191.897 3.77838C190.762 3.77838 189.861 4.32235 189.472 5.34811H189.441V3.9338H186.877V12ZM193.588 3.79392H194.707C194.753 4.50885 194.271 5.13052 193.588 5.25485V6.4982C195.282 6.21845 196.043 5.03727 196.059 3.48309V0.903148H193.588V3.79392ZM196.38 9.34235C196.458 11.5959 198.416 12.2331 200.328 12.2331C202.146 12.2331 204.198 11.5182 204.198 9.35789C204.198 8.68959 203.778 7.50842 202.146 7.18204C200.934 6.91783 199.162 6.77795 199.162 6.0164C199.162 5.4569 199.862 5.41027 200.297 5.41027C200.623 5.41027 200.918 5.47244 201.136 5.61232C201.354 5.75219 201.478 5.96978 201.478 6.3117H203.918C203.825 4.21355 201.975 3.70067 200.203 3.70067C198.618 3.70067 196.52 4.2291 196.52 6.17182C196.52 8.34767 198.603 8.3943 200.266 8.81393C200.732 8.92272 201.556 9.04706 201.556 9.66873C201.556 10.3059 200.825 10.5235 200.312 10.5235C199.939 10.5235 199.582 10.4303 199.333 10.2438C199.069 10.0417 198.898 9.74644 198.898 9.34235H196.38ZM210.074 6.45157C210.074 9.66873 212.048 12.2331 215.545 12.2331C219.042 12.2331 221.015 9.66873 221.015 6.45157C221.015 3.23442 219.042 0.670021 215.545 0.670021C212.048 0.670021 210.074 3.23442 210.074 6.45157ZM212.965 6.45157C212.965 4.80414 213.68 3.15671 215.545 3.15671C217.41 3.15671 218.125 4.80414 218.125 6.45157C218.125 8.09901 217.41 9.74644 215.545 9.74644C213.68 9.74644 212.965 8.09901 212.965 6.45157ZM223.056 12H225.698V5.6434H227.284V3.9338H225.698V3.57634C225.698 2.84587 226.071 2.76816 226.678 2.76816C226.911 2.76816 227.144 2.78371 227.393 2.81479V0.949773C226.973 0.934232 226.538 0.903148 226.118 0.903148C223.865 0.903148 223.056 1.61807 223.056 3.9338H221.782V5.6434H223.056V12ZM228.809 12H231.451V5.6434H233.036V3.9338H231.451V3.57634C231.451 2.84587 231.824 2.76816 232.43 2.76816C232.663 2.76816 232.896 2.78371 233.145 2.81479V0.949773C232.725 0.934232 232.29 0.903148 231.87 0.903148C229.617 0.903148 228.809 1.61807 228.809 3.9338H227.534V5.6434H228.809V12ZM234.235 12H236.877V3.9338H234.235V12ZM236.877 0.903148H234.235V2.92358H236.877V0.903148ZM246.402 6.88674C246.216 4.75752 244.428 3.70067 242.424 3.70067C239.828 3.70067 238.196 5.53461 238.196 8.09901C238.196 10.5702 239.999 12.2331 242.424 12.2331C244.568 12.2331 246.247 10.9898 246.48 8.82947H243.916C243.791 9.68427 243.325 10.2127 242.408 10.2127C241.289 10.2127 240.838 9.14031 240.838 8.09901C240.838 6.98 241.071 5.72111 242.548 5.72111C243.216 5.72111 243.822 6.2029 243.838 6.88674H246.402ZM249.74 7.13541C249.896 6.15628 250.517 5.48798 251.45 5.48798C252.336 5.48798 252.973 6.23399 253.019 7.13541H249.74ZM255.662 8.61189C255.786 5.87653 254.341 3.70067 251.45 3.70067C249.072 3.70067 247.098 5.47244 247.098 7.94359C247.098 10.6479 248.885 12.2331 251.512 12.2331C253.315 12.2331 255.04 11.425 255.522 9.55994H253.051C252.802 10.1505 252.18 10.4458 251.543 10.4458C250.424 10.4458 249.787 9.71535 249.74 8.61189H255.662ZM145.443 29H148.085V22.6434H149.67V20.9338H148.085V20.5763C148.085 19.8459 148.458 19.7682 149.064 19.7682C149.297 19.7682 149.53 19.7837 149.779 19.8148V17.9498C149.359 17.9342 148.924 17.9031 148.504 17.9031C146.251 17.9031 145.443 18.6181 145.443 20.9338H144.168V22.6434H145.443V29ZM152.873 24.9747C152.873 23.9489 153.246 22.7211 154.474 22.7211C155.702 22.7211 156.091 23.9489 156.091 24.9747C156.091 26.0004 155.702 27.2127 154.474 27.2127C153.246 27.2127 152.873 26.0004 152.873 24.9747ZM150.231 24.9747C150.231 27.3992 151.972 29.2331 154.474 29.2331C156.976 29.2331 158.733 27.3992 158.733 24.9747C158.733 22.5501 156.976 20.7007 154.474 20.7007C151.972 20.7007 150.231 22.5501 150.231 24.9747ZM160.214 29H162.856V25.0058C162.856 23.9955 163.54 23.0941 164.846 23.0941C165.203 23.0941 165.514 23.1563 165.856 23.2495V20.8405C165.654 20.7939 165.436 20.7784 165.234 20.7784C164.1 20.7784 163.198 21.3223 162.81 22.3481H162.779V20.9338H160.214V29ZM171.75 29H180.748V26.5133H174.64V24.3996H180.08V22.1616H174.64V20.2189H180.593V17.9031H171.75V29ZM189.942 23.8867C189.756 21.7575 187.969 20.7007 185.964 20.7007C183.368 20.7007 181.736 22.5346 181.736 25.099C181.736 27.5702 183.539 29.2331 185.964 29.2331C188.108 29.2331 189.787 27.9898 190.02 25.8295H187.456C187.331 26.6843 186.865 27.2127 185.948 27.2127C184.829 27.2127 184.378 26.1403 184.378 25.099C184.378 23.98 184.611 22.7211 186.088 22.7211C186.756 22.7211 187.362 23.2029 187.378 23.8867H189.942ZM193.591 24.9747C193.591 23.9489 193.964 22.7211 195.192 22.7211C196.42 22.7211 196.808 23.9489 196.808 24.9747C196.808 26.0004 196.42 27.2127 195.192 27.2127C193.964 27.2127 193.591 26.0004 193.591 24.9747ZM190.949 24.9747C190.949 27.3992 192.69 29.2331 195.192 29.2331C197.694 29.2331 199.45 27.3992 199.45 24.9747C199.45 22.5501 197.694 20.7007 195.192 20.7007C192.69 20.7007 190.949 22.5501 190.949 24.9747ZM200.683 29H203.325V24.6017C203.325 23.7158 203.761 22.8765 204.755 22.8765C206.201 22.8765 206.076 23.9955 206.076 25.099V29H208.718V23.8246C208.718 22.6589 208.501 20.7007 205.812 20.7007C204.849 20.7007 203.761 21.2136 203.279 22.0373H203.248V20.9338H200.683V29ZM212.571 24.9747C212.571 23.9489 212.944 22.7211 214.172 22.7211C215.4 22.7211 215.788 23.9489 215.788 24.9747C215.788 26.0004 215.4 27.2127 214.172 27.2127C212.944 27.2127 212.571 26.0004 212.571 24.9747ZM209.929 24.9747C209.929 27.3992 211.67 29.2331 214.172 29.2331C216.674 29.2331 218.43 27.3992 218.43 24.9747C218.43 22.5501 216.674 20.7007 214.172 20.7007C211.67 20.7007 209.929 22.5501 209.929 24.9747ZM219.663 29H222.305V25.0679C222.305 23.4205 222.709 22.8765 223.657 22.8765C224.372 22.8765 224.652 23.4671 224.652 24.4152V29H227.294V25.0524C227.294 23.7469 227.403 22.8765 228.538 22.8765C229.221 22.8765 229.641 23.3894 229.641 24.2597V29H232.283V24.182C232.283 22.6434 232.003 20.7007 229.439 20.7007C228.351 20.7007 227.558 21.1514 226.921 22.0062C226.486 21.0271 225.585 20.7007 224.574 20.7007C223.595 20.7007 222.74 21.2291 222.259 22.0373H222.228V20.9338H219.663V29ZM234.145 29H236.787V20.9338H234.145V29ZM236.787 17.9031H234.145V19.9236H236.787V17.9031ZM246.468 23.8867C246.281 21.7575 244.494 20.7007 242.489 20.7007C239.894 20.7007 238.262 22.5346 238.262 25.099C238.262 27.5702 240.065 29.2331 242.489 29.2331C244.634 29.2331 246.312 27.9898 246.545 25.8295H243.981C243.857 26.6843 243.391 27.2127 242.474 27.2127C241.355 27.2127 240.904 26.1403 240.904 25.099C240.904 23.98 241.137 22.7211 242.613 22.7211C243.282 22.7211 243.888 23.2029 243.903 23.8867H246.468ZM144.557 40.4516C144.557 43.6687 146.531 46.2331 150.027 46.2331C153.524 46.2331 155.498 43.6687 155.498 40.4516C155.498 37.2344 153.524 34.67 150.027 34.67C146.531 34.67 144.557 37.2344 144.557 40.4516ZM147.448 40.4516C147.448 38.8041 148.162 37.1567 150.027 37.1567C151.892 37.1567 152.607 38.8041 152.607 40.4516C152.607 42.099 151.892 43.7464 150.027 43.7464C148.162 43.7464 147.448 42.099 147.448 40.4516ZM160.974 39.7211C162.14 39.7211 162.544 40.8557 162.544 41.8814C162.544 42.9849 162.14 44.2127 160.958 44.2127C159.762 44.2127 159.358 43.2957 159.358 41.8814C159.358 40.2184 160.259 39.7211 160.974 39.7211ZM156.809 48.7043H159.451V45.1297H159.482C160.026 45.8601 160.787 46.2331 161.782 46.2331C164.067 46.2331 165.186 44.2438 165.186 42.1456C165.186 39.8765 164.113 37.7007 161.58 37.7007C160.647 37.7007 159.87 38.1048 159.358 38.8663H159.326V37.9338H156.809V48.7043ZM170.763 39.7211C171.929 39.7211 172.333 40.8557 172.333 41.8814C172.333 42.9849 171.929 44.2127 170.748 44.2127C169.551 44.2127 169.147 43.2957 169.147 41.8814C169.147 40.2184 170.048 39.7211 170.763 39.7211ZM166.598 48.7043H169.24V45.1297H169.271C169.815 45.8601 170.577 46.2331 171.572 46.2331C173.856 46.2331 174.975 44.2438 174.975 42.1456C174.975 39.8765 173.903 37.7007 171.37 37.7007C170.437 37.7007 169.66 38.1048 169.147 38.8663H169.116V37.9338H166.598V48.7043ZM178.641 41.9747C178.641 40.9489 179.014 39.7211 180.242 39.7211C181.47 39.7211 181.858 40.9489 181.858 41.9747C181.858 43.0004 181.47 44.2127 180.242 44.2127C179.014 44.2127 178.641 43.0004 178.641 41.9747ZM175.999 41.9747C175.999 44.3992 177.74 46.2331 180.242 46.2331C182.744 46.2331 184.501 44.3992 184.501 41.9747C184.501 39.5501 182.744 37.7007 180.242 37.7007C177.74 37.7007 175.999 39.5501 175.999 41.9747ZM185.671 46H188.313V42.0058C188.313 40.9955 188.997 40.0941 190.303 40.0941C190.66 40.0941 190.971 40.1563 191.313 40.2495V37.8405C191.111 37.7939 190.893 37.7784 190.691 37.7784C189.557 37.7784 188.655 38.3223 188.267 39.3481H188.236V37.9338H185.671V46ZM197.526 37.9338H195.894V35.4937H193.252V37.9338H191.916V39.6434H193.252V43.2336C193.252 45.425 193.827 46.0777 196.081 46.0777C196.563 46.0777 197.044 46.0155 197.526 46V44.0573C197.293 44.0573 197.06 44.0884 196.842 44.0884C196.267 44.0884 195.894 43.9485 195.894 43.3113V39.6434H197.526V37.9338ZM206.722 37.9338H204.08V42.2544C204.08 43.6843 203.209 44.0573 202.634 44.0573C201.795 44.0573 201.329 43.6843 201.329 42.6119V37.9338H198.687V42.7828C198.687 44.8965 199.355 46.2331 201.671 46.2331C202.603 46.2331 203.629 45.7202 204.126 44.8965H204.158V46H206.722V37.9338ZM208.492 46H211.134V41.6017C211.134 40.7158 211.569 39.8765 212.564 39.8765C214.009 39.8765 213.885 40.9955 213.885 42.099V46H216.527V40.8246C216.527 39.6589 216.309 37.7007 213.621 37.7007C212.657 37.7007 211.569 38.2136 211.087 39.0373H211.056V37.9338H208.492V46ZM218.375 46H221.017V37.9338H218.375V46ZM221.017 34.9031H218.375V36.9236H221.017V34.9031ZM227.745 37.9338H226.113V35.4937H223.471V37.9338H222.134V39.6434H223.471V43.2336C223.471 45.425 224.046 46.0777 226.299 46.0777C226.781 46.0777 227.263 46.0155 227.745 46V44.0573C227.512 44.0573 227.279 44.0884 227.061 44.0884C226.486 44.0884 226.113 43.9485 226.113 43.3113V39.6434H227.745V37.9338ZM236.505 37.9338H233.801L232.278 43.1869H232.247L230.724 37.9338H227.926L230.009 43.5444C230.164 43.9796 230.677 45.2229 230.677 45.6581C230.677 46.2176 230.226 46.5595 229.62 46.5595H228.703V48.7043H229.947C231.734 48.7043 232.682 48.4867 233.319 46.7149L236.505 37.9338Z" fill="#1642DF"/>
</svg>
