<svg width="154" height="152" viewBox="0 0 154 152" fill="none" xmlns="http://www.w3.org/2000/svg"><g clip-path="url(#clip0_2805_215)" fill="#1642DF"><path d="M153.744 4.84564V14.2819V33.1544L129.657 56.8725V71.1541L124.789 76H139.138L153.488 90.2822V104.564L148.619 109.154H124.533V104.564H105.314V123.436H124.533V118.59H148.619L153.488 123.436V137.718L139.138 152H91.2213L76.8718 137.208V90.0267L91.2213 75.7451H105.571L100.702 70.8992V56.6174L76.8718 33.1544V70.8992L72.0035 75.7451H52.7853L28.6988 52.0269V70.8992L23.8303 75.7451H4.86855L0 70.8992V4.5906L4.86855 0H24.0865L48.173 23.7181V4.84564L52.7853 0H72.0035L76.8718 4.84564L81.7406 0H100.958L105.827 4.84564V14.2819L115.308 23.7181L125.045 14.2819V4.84564L129.657 0H148.875L153.744 4.84564Z"/><path d="M150.282 79.0626C150.739 79.0626 151.132 79.021 151.132 78.5001C151.132 78.0626 150.696 78.0105 150.335 78.0105H149.602V79.0626H150.282ZM149.613 81.1043H149.007V77.5105H150.399C151.28 77.5105 151.737 77.8126 151.737 78.5418C151.737 79.198 151.333 79.4585 150.781 79.521L151.811 81.1043H151.132L150.186 79.5626H149.623V81.1043H149.613ZM150.261 76.5626C148.827 76.5626 147.712 77.6668 147.712 79.2501C147.712 80.7293 148.689 81.9376 150.261 81.9376C151.684 81.9376 152.799 80.8439 152.799 79.2501C152.799 77.6668 151.684 76.5626 150.261 76.5626ZM150.261 82.5001C148.359 82.5001 147 81.1043 147 79.2501C147 77.2918 148.508 76.0001 150.261 76.0001C151.992 76.0001 153.5 77.2918 153.5 79.2501C153.511 81.198 152.002 82.5001 150.261 82.5001Z"/></g><path d="M67.6158 118.925L36.9803 152L6.34481 118.925C2.28231 114.539 0 108.59 0 102.388C0 96.1848 2.28231 90.2361 6.34481 85.85C10.4073 81.464 15.9173 79 21.6626 79C27.4078 79 32.9176 81.464 36.9803 85.85C41.0429 81.464 46.5527 79 52.2982 79C58.0434 79 63.5532 81.464 67.6158 85.85C71.6784 90.2361 73.9605 96.1848 73.9605 102.388C73.9605 108.59 71.6784 114.539 67.6158 118.925Z" fill="#FC5D52"/><defs><clipPath id="clip0_2805_215"><path fill="#fff" d="M0 0H154V152H0z"/></clipPath></defs></svg>